<svg width="231" height="478" viewBox="0 0 231 478" fill="none" xmlns="http://www.w3.org/2000/svg">
<ellipse cx="23.1001" cy="475.519" rx="2.38966" ry="2.48097" fill="#292957"/>
<ellipse cx="23.1001" cy="454.017" rx="2.38966" ry="2.48097" fill="#292957"/>
<ellipse cx="23.1001" cy="325.007" rx="2.38966" ry="2.48097" fill="#292957"/>
<ellipse cx="23.1001" cy="195.996" rx="2.38966" ry="2.48097" fill="#292957"/>
<ellipse cx="43.8101" cy="174.495" rx="2.38966" ry="2.48097" fill="#292957"/>
<ellipse cx="64.521" cy="176.149" rx="2.38966" ry="2.48097" fill="#292957"/>
<ellipse cx="23.1001" cy="411.014" rx="2.38966" ry="2.48097" fill="#292957"/>
<ellipse cx="23.1001" cy="282.003" rx="2.38966" ry="2.48097" fill="#292957"/>
<ellipse cx="43.8101" cy="260.502" rx="2.38966" ry="2.48097" fill="#292957"/>
<ellipse cx="64.521" cy="260.502" rx="2.38966" ry="2.48097" fill="#292957"/>
<ellipse cx="23.1001" cy="152.993" rx="2.38966" ry="2.48097" fill="#292957"/>
<ellipse cx="43.8101" cy="129.837" rx="2.38966" ry="2.48097" fill="#292957"/>
<ellipse cx="64.521" cy="131.491" rx="2.38966" ry="2.48097" fill="#292957"/>
<ellipse cx="85.231" cy="131.491" rx="2.38966" ry="2.48097" fill="#292957"/>
<ellipse cx="104.348" cy="131.491" rx="2.38966" ry="2.48097" fill="#292957"/>
<ellipse cx="125.059" cy="131.491" rx="2.38966" ry="2.48097" fill="#292957"/>
<ellipse cx="23.1001" cy="368.01" rx="2.38966" ry="2.48097" fill="#292957"/>
<ellipse cx="23.1001" cy="239" rx="2.38966" ry="2.48097" fill="#292957"/>
<ellipse cx="43.8101" cy="217.498" rx="2.38966" ry="2.48097" fill="#292957"/>
<ellipse cx="64.521" cy="217.498" rx="2.38966" ry="2.48097" fill="#292957"/>
<ellipse cx="85.231" cy="217.498" rx="2.38966" ry="2.48097" fill="#292957"/>
<ellipse cx="104.348" cy="217.498" rx="2.38966" ry="2.48097" fill="#292957"/>
<ellipse cx="23.1001" cy="109.99" rx="2.38966" ry="2.48097" fill="#292957"/>
<ellipse cx="43.8101" cy="109.99" rx="2.38966" ry="2.48097" fill="#292957"/>
<ellipse cx="64.521" cy="111.644" rx="2.38966" ry="2.48097" fill="#292957"/>
<ellipse cx="85.231" cy="111.644" rx="2.38966" ry="2.48097" fill="#292957"/>
<ellipse cx="104.348" cy="111.644" rx="2.38966" ry="2.48097" fill="#292957"/>
<ellipse cx="2.38966" cy="454.017" rx="2.38966" ry="2.48097" fill="#292957"/>
<ellipse cx="2.38966" cy="325.007" rx="2.38966" ry="2.48097" fill="#292957"/>
<ellipse cx="2.38966" cy="195.996" rx="2.38966" ry="2.48097" fill="#292957"/>
<ellipse cx="2.38966" cy="411.014" rx="2.38966" ry="2.48097" fill="#292957"/>
<ellipse cx="2.38966" cy="282.003" rx="2.38966" ry="2.48097" fill="#292957"/>
<ellipse cx="2.38966" cy="152.993" rx="2.38966" ry="2.48097" fill="#292957"/>
<ellipse cx="2.38966" cy="368.01" rx="2.38966" ry="2.48097" fill="#292957"/>
<ellipse cx="2.38966" cy="239" rx="2.38966" ry="2.48097" fill="#292957"/>
<ellipse cx="2.38966" cy="109.99" rx="2.38966" ry="2.48097" fill="#292957"/>
<ellipse cx="2.38966" cy="432.516" rx="2.38966" ry="2.48097" fill="#292957"/>
<ellipse cx="2.38966" cy="303.505" rx="2.38966" ry="2.48097" fill="#292957"/>
<ellipse cx="2.38966" cy="174.495" rx="2.38966" ry="2.48097" fill="#292957"/>
<ellipse cx="2.38966" cy="389.512" rx="2.38966" ry="2.48097" fill="#292957"/>
<ellipse cx="2.38966" cy="260.502" rx="2.38966" ry="2.48097" fill="#292957"/>
<ellipse cx="2.38966" cy="131.491" rx="2.38966" ry="2.48097" fill="#292957"/>
<ellipse cx="2.38966" cy="346.509" rx="2.38966" ry="2.48097" fill="#292957"/>
<ellipse cx="2.38966" cy="217.498" rx="2.38966" ry="2.48097" fill="#292957"/>
<ellipse cx="2.38966" cy="88.4879" rx="2.38966" ry="2.48097" fill="#292957"/>
<ellipse cx="2.38966" cy="68.6402" rx="2.38966" ry="2.48097" fill="#292957"/>
<ellipse cx="2.38966" cy="25.6366" rx="2.38966" ry="2.48097" fill="#292957"/>
<ellipse cx="23.1001" cy="432.516" rx="2.38966" ry="2.48097" fill="#292957"/>
<ellipse cx="23.1001" cy="303.505" rx="2.38966" ry="2.48097" fill="#292957"/>
<ellipse cx="43.8101" cy="303.505" rx="2.38966" ry="2.48097" fill="#292957"/>
<ellipse cx="64.521" cy="303.505" rx="2.38966" ry="2.48097" fill="#292957"/>
<ellipse cx="43.8101" cy="282.003" rx="2.38966" ry="2.48097" fill="#292957"/>
<ellipse cx="64.521" cy="282.003" rx="2.38966" ry="2.48097" fill="#292957"/>
<ellipse cx="23.1001" cy="174.495" rx="2.38966" ry="2.48097" fill="#292957"/>
<ellipse cx="43.8101" cy="152.993" rx="2.38966" ry="2.48097" fill="#292957"/>
<ellipse cx="64.521" cy="154.647" rx="2.38966" ry="2.48097" fill="#292957"/>
<ellipse cx="85.231" cy="154.647" rx="2.38966" ry="2.48097" fill="#292957"/>
<ellipse cx="145.769" cy="154.647" rx="2.38966" ry="2.48097" fill="#292957"/>
<ellipse cx="145.769" cy="131.491" rx="2.38966" ry="2.48097" fill="#292957"/>
<ellipse cx="145.769" cy="174.495" rx="2.38966" ry="2.48097" fill="#292957"/>
<ellipse cx="104.348" cy="154.647" rx="2.38966" ry="2.48097" fill="#292957"/>
<ellipse cx="164.886" cy="154.647" rx="2.38966" ry="2.48097" fill="#292957"/>
<ellipse cx="164.886" cy="174.495" rx="2.38966" ry="2.48097" fill="#292957"/>
<ellipse cx="125.059" cy="154.647" rx="2.38966" ry="2.48097" fill="#292957"/>
<ellipse cx="185.597" cy="154.647" rx="2.38966" ry="2.48097" fill="#292957"/>
<ellipse cx="185.597" cy="174.495" rx="2.38966" ry="2.48097" fill="#292957"/>
<ellipse cx="228.61" cy="169.533" rx="2.38966" ry="2.48097" fill="#292957"/>
<ellipse cx="23.1001" cy="389.512" rx="2.38966" ry="2.48097" fill="#292957"/>
<ellipse cx="23.1001" cy="260.502" rx="2.38966" ry="2.48097" fill="#292957"/>
<ellipse cx="43.8101" cy="239" rx="2.38966" ry="2.48097" fill="#292957"/>
<ellipse cx="64.521" cy="239" rx="2.38966" ry="2.48097" fill="#292957"/>
<ellipse cx="23.1001" cy="346.509" rx="2.38966" ry="2.48097" fill="#292957"/>
<ellipse cx="43.8101" cy="346.509" rx="2.38966" ry="2.48097" fill="#292957"/>
<ellipse cx="64.521" cy="346.509" rx="2.38966" ry="2.48097" fill="#292957"/>
<ellipse cx="64.521" cy="326.661" rx="2.38966" ry="2.48097" fill="#292957"/>
<ellipse cx="83.6382" cy="346.509" rx="2.38966" ry="2.48097" fill="#292957"/>
<ellipse cx="23.1001" cy="217.498" rx="2.38966" ry="2.48097" fill="#292957"/>
<ellipse cx="42.2173" cy="195.996" rx="2.38966" ry="2.48097" fill="#292957"/>
<ellipse cx="62.9277" cy="195.996" rx="2.38966" ry="2.48097" fill="#292957"/>
<ellipse cx="85.231" cy="195.996" rx="2.38966" ry="2.48097" fill="#292957"/>
<ellipse cx="104.348" cy="195.996" rx="2.38966" ry="2.48097" fill="#292957"/>
<ellipse cx="125.059" cy="195.996" rx="2.38966" ry="2.48097" fill="#292957"/>
<ellipse cx="104.348" cy="174.495" rx="2.38966" ry="2.48097" fill="#292957"/>
<ellipse cx="125.059" cy="174.495" rx="2.38966" ry="2.48097" fill="#292957"/>
<ellipse cx="23.1001" cy="88.4879" rx="2.38966" ry="2.48097" fill="#292957"/>
<ellipse cx="43.8101" cy="88.4879" rx="2.38966" ry="2.48097" fill="#292957"/>
<ellipse cx="64.521" cy="90.1419" rx="2.38966" ry="2.48097" fill="#292957"/>
<ellipse cx="85.231" cy="90.1419" rx="2.38966" ry="2.48097" fill="#292957"/>
<ellipse cx="104.348" cy="90.1419" rx="2.38966" ry="2.48097" fill="#292957"/>
<ellipse cx="23.1001" cy="43.8305" rx="2.38966" ry="2.48097" fill="#292957"/>
<ellipse cx="43.8101" cy="43.8305" rx="2.38966" ry="2.48097" fill="#292957"/>
<ellipse cx="64.521" cy="45.4844" rx="2.38966" ry="2.48097" fill="#292957"/>
<ellipse cx="85.231" cy="45.4844" rx="2.38966" ry="2.48097" fill="#292957"/>
<ellipse cx="23.1001" cy="68.6402" rx="2.38966" ry="2.48097" fill="#292957"/>
<ellipse cx="43.8101" cy="68.6402" rx="2.38966" ry="2.48097" fill="#292957"/>
<ellipse cx="64.521" cy="70.2941" rx="2.38966" ry="2.48097" fill="#292957"/>
<ellipse cx="85.231" cy="70.2941" rx="2.38966" ry="2.48097" fill="#292957"/>
<ellipse cx="104.348" cy="70.2941" rx="2.38966" ry="2.48097" fill="#292957"/>
<ellipse cx="23.1001" cy="23.9827" rx="2.38966" ry="2.48097" fill="#292957"/>
<ellipse cx="43.8101" cy="23.9827" rx="2.38966" ry="2.48097" fill="#292957"/>
<ellipse cx="64.521" cy="25.6366" rx="2.38966" ry="2.48097" fill="#292957"/>
<ellipse cx="85.231" cy="25.6366" rx="2.38966" ry="2.48097" fill="#292957"/>
<ellipse cx="85.231" cy="2.48097" rx="2.38966" ry="2.48097" fill="#292957"/>
<ellipse cx="105.941" cy="25.6366" rx="2.38966" ry="2.48097" fill="#292957"/>
<ellipse cx="105.941" cy="2.48097" rx="2.38966" ry="2.48097" fill="#292957"/>
<ellipse cx="126.652" cy="25.6366" rx="2.38966" ry="2.48097" fill="#292957"/>
<ellipse cx="126.652" cy="2.48097" rx="2.38966" ry="2.48097" fill="#292957"/>
<ellipse cx="145.769" cy="2.48097" rx="2.38966" ry="2.48097" fill="#292957"/>
<ellipse cx="166.479" cy="2.48097" rx="2.38966" ry="2.48097" fill="#292957"/>
<ellipse cx="43.8101" cy="2.48097" rx="2.38966" ry="2.48097" fill="#292957"/>
</svg>
