<svg width="1429" height="478" viewBox="0 0 1429 478" fill="none" xmlns="http://www.w3.org/2000/svg">
<ellipse cx="23.1001" cy="475.519" rx="2.38966" ry="2.48097" fill="#292957"/>
<ellipse cx="23.1001" cy="454.017" rx="2.38966" ry="2.48097" fill="#292957"/>
<ellipse cx="23.1001" cy="325.007" rx="2.38966" ry="2.48097" fill="#292957"/>
<ellipse cx="23.1001" cy="195.996" rx="2.38966" ry="2.48097" fill="#292957"/>
<ellipse cx="43.8101" cy="174.495" rx="2.38966" ry="2.48097" fill="#292957"/>
<ellipse cx="64.521" cy="176.149" rx="2.38966" ry="2.48097" fill="#292957"/>
<ellipse cx="23.1001" cy="411.014" rx="2.38966" ry="2.48097" fill="#292957"/>
<ellipse cx="23.1001" cy="282.003" rx="2.38966" ry="2.48097" fill="#292957"/>
<ellipse cx="43.8101" cy="260.502" rx="2.38966" ry="2.48097" fill="#292957"/>
<ellipse cx="64.521" cy="260.502" rx="2.38966" ry="2.48097" fill="#292957"/>
<ellipse cx="23.1001" cy="152.993" rx="2.38966" ry="2.48097" fill="#292957"/>
<ellipse cx="43.8101" cy="129.837" rx="2.38966" ry="2.48097" fill="#292957"/>
<ellipse cx="64.521" cy="131.491" rx="2.38966" ry="2.48097" fill="#292957"/>
<ellipse cx="85.231" cy="131.491" rx="2.38966" ry="2.48097" fill="#292957"/>
<ellipse cx="104.348" cy="131.491" rx="2.38966" ry="2.48097" fill="#292957"/>
<ellipse cx="125.059" cy="131.491" rx="2.38966" ry="2.48097" fill="#292957"/>
<ellipse cx="23.1001" cy="368.01" rx="2.38966" ry="2.48097" fill="#292957"/>
<ellipse cx="23.1001" cy="239" rx="2.38966" ry="2.48097" fill="#292957"/>
<ellipse cx="43.8101" cy="217.498" rx="2.38966" ry="2.48097" fill="#292957"/>
<ellipse cx="64.521" cy="217.498" rx="2.38966" ry="2.48097" fill="#292957"/>
<ellipse cx="85.231" cy="217.498" rx="2.38966" ry="2.48097" fill="#292957"/>
<ellipse cx="104.348" cy="217.498" rx="2.38966" ry="2.48097" fill="#292957"/>
<ellipse cx="23.1001" cy="109.99" rx="2.38966" ry="2.48097" fill="#292957"/>
<ellipse cx="43.8101" cy="109.99" rx="2.38966" ry="2.48097" fill="#292957"/>
<ellipse cx="64.521" cy="111.644" rx="2.38966" ry="2.48097" fill="#292957"/>
<ellipse cx="85.231" cy="111.644" rx="2.38966" ry="2.48097" fill="#292957"/>
<ellipse cx="104.348" cy="111.644" rx="2.38966" ry="2.48097" fill="#292957"/>
<ellipse cx="2.38966" cy="454.017" rx="2.38966" ry="2.48097" fill="#292957"/>
<ellipse cx="2.38966" cy="325.007" rx="2.38966" ry="2.48097" fill="#292957"/>
<ellipse cx="2.38966" cy="195.996" rx="2.38966" ry="2.48097" fill="#292957"/>
<ellipse cx="2.38966" cy="411.014" rx="2.38966" ry="2.48097" fill="#292957"/>
<ellipse cx="2.38966" cy="282.003" rx="2.38966" ry="2.48097" fill="#292957"/>
<ellipse cx="2.38966" cy="152.993" rx="2.38966" ry="2.48097" fill="#292957"/>
<ellipse cx="2.38966" cy="368.01" rx="2.38966" ry="2.48097" fill="#292957"/>
<ellipse cx="2.38966" cy="239" rx="2.38966" ry="2.48097" fill="#292957"/>
<ellipse cx="2.38966" cy="109.99" rx="2.38966" ry="2.48097" fill="#292957"/>
<ellipse cx="2.38966" cy="432.516" rx="2.38966" ry="2.48097" fill="#292957"/>
<ellipse cx="2.38966" cy="303.505" rx="2.38966" ry="2.48097" fill="#292957"/>
<ellipse cx="2.38966" cy="174.495" rx="2.38966" ry="2.48097" fill="#292957"/>
<ellipse cx="2.38966" cy="389.512" rx="2.38966" ry="2.48097" fill="#292957"/>
<ellipse cx="2.38966" cy="260.502" rx="2.38966" ry="2.48097" fill="#292957"/>
<ellipse cx="2.38966" cy="131.491" rx="2.38966" ry="2.48097" fill="#292957"/>
<ellipse cx="2.38966" cy="346.509" rx="2.38966" ry="2.48097" fill="#292957"/>
<ellipse cx="2.38966" cy="217.498" rx="2.38966" ry="2.48097" fill="#292957"/>
<ellipse cx="2.38966" cy="88.4879" rx="2.38966" ry="2.48097" fill="#292957"/>
<ellipse cx="2.38966" cy="68.6402" rx="2.38966" ry="2.48097" fill="#292957"/>
<ellipse cx="2.38966" cy="25.6366" rx="2.38966" ry="2.48097" fill="#292957"/>
<ellipse cx="23.1001" cy="432.516" rx="2.38966" ry="2.48097" fill="#292957"/>
<ellipse cx="23.1001" cy="303.505" rx="2.38966" ry="2.48097" fill="#292957"/>
<ellipse cx="43.8101" cy="303.505" rx="2.38966" ry="2.48097" fill="#292957"/>
<ellipse cx="64.521" cy="303.505" rx="2.38966" ry="2.48097" fill="#292957"/>
<ellipse cx="43.8101" cy="282.003" rx="2.38966" ry="2.48097" fill="#292957"/>
<ellipse cx="64.521" cy="282.003" rx="2.38966" ry="2.48097" fill="#292957"/>
<ellipse cx="23.1001" cy="174.495" rx="2.38966" ry="2.48097" fill="#292957"/>
<ellipse cx="43.8101" cy="152.993" rx="2.38966" ry="2.48097" fill="#292957"/>
<ellipse cx="64.521" cy="154.647" rx="2.38966" ry="2.48097" fill="#292957"/>
<ellipse cx="85.231" cy="154.647" rx="2.38966" ry="2.48097" fill="#292957"/>
<ellipse cx="145.769" cy="154.647" rx="2.38966" ry="2.48097" fill="#292957"/>
<ellipse cx="145.769" cy="131.491" rx="2.38966" ry="2.48097" fill="#292957"/>
<ellipse cx="145.769" cy="174.495" rx="2.38966" ry="2.48097" fill="#292957"/>
<ellipse cx="104.348" cy="154.647" rx="2.38966" ry="2.48097" fill="#292957"/>
<ellipse cx="164.886" cy="154.647" rx="2.38966" ry="2.48097" fill="#292957"/>
<ellipse cx="164.886" cy="174.495" rx="2.38966" ry="2.48097" fill="#292957"/>
<ellipse cx="125.059" cy="154.647" rx="2.38966" ry="2.48097" fill="#292957"/>
<ellipse cx="185.597" cy="154.647" rx="2.38966" ry="2.48097" fill="#292957"/>
<ellipse cx="185.597" cy="174.495" rx="2.38966" ry="2.48097" fill="#292957"/>
<ellipse cx="228.61" cy="169.533" rx="2.38966" ry="2.48097" fill="#292957"/>
<ellipse cx="23.1001" cy="389.512" rx="2.38966" ry="2.48097" fill="#292957"/>
<ellipse cx="23.1001" cy="260.502" rx="2.38966" ry="2.48097" fill="#292957"/>
<ellipse cx="43.8101" cy="239" rx="2.38966" ry="2.48097" fill="#292957"/>
<ellipse cx="64.521" cy="239" rx="2.38966" ry="2.48097" fill="#292957"/>
<ellipse cx="23.1001" cy="346.509" rx="2.38966" ry="2.48097" fill="#292957"/>
<ellipse cx="43.8101" cy="346.509" rx="2.38966" ry="2.48097" fill="#292957"/>
<ellipse cx="64.521" cy="346.509" rx="2.38966" ry="2.48097" fill="#292957"/>
<ellipse cx="64.521" cy="326.661" rx="2.38966" ry="2.48097" fill="#292957"/>
<ellipse cx="83.6382" cy="346.509" rx="2.38966" ry="2.48097" fill="#292957"/>
<ellipse cx="23.1001" cy="217.498" rx="2.38966" ry="2.48097" fill="#292957"/>
<ellipse cx="42.2173" cy="195.996" rx="2.38966" ry="2.48097" fill="#292957"/>
<ellipse cx="62.9277" cy="195.996" rx="2.38966" ry="2.48097" fill="#292957"/>
<ellipse cx="85.231" cy="195.996" rx="2.38966" ry="2.48097" fill="#292957"/>
<ellipse cx="104.348" cy="195.996" rx="2.38966" ry="2.48097" fill="#292957"/>
<ellipse cx="125.059" cy="195.996" rx="2.38966" ry="2.48097" fill="#292957"/>
<ellipse cx="104.348" cy="174.495" rx="2.38966" ry="2.48097" fill="#292957"/>
<ellipse cx="125.059" cy="174.495" rx="2.38966" ry="2.48097" fill="#292957"/>
<ellipse cx="23.1001" cy="88.4879" rx="2.38966" ry="2.48097" fill="#292957"/>
<ellipse cx="43.8101" cy="88.4879" rx="2.38966" ry="2.48097" fill="#292957"/>
<ellipse cx="64.521" cy="90.1419" rx="2.38966" ry="2.48097" fill="#292957"/>
<ellipse cx="85.231" cy="90.1419" rx="2.38966" ry="2.48097" fill="#292957"/>
<ellipse cx="104.348" cy="90.1419" rx="2.38966" ry="2.48097" fill="#292957"/>
<ellipse cx="23.1001" cy="43.8305" rx="2.38966" ry="2.48097" fill="#292957"/>
<ellipse cx="43.8101" cy="43.8305" rx="2.38966" ry="2.48097" fill="#292957"/>
<ellipse cx="64.521" cy="45.4844" rx="2.38966" ry="2.48097" fill="#292957"/>
<ellipse cx="85.231" cy="45.4844" rx="2.38966" ry="2.48097" fill="#292957"/>
<ellipse cx="23.1001" cy="68.6402" rx="2.38966" ry="2.48097" fill="#292957"/>
<ellipse cx="43.8101" cy="68.6402" rx="2.38966" ry="2.48097" fill="#292957"/>
<ellipse cx="64.521" cy="70.2941" rx="2.38966" ry="2.48097" fill="#292957"/>
<ellipse cx="85.231" cy="70.2941" rx="2.38966" ry="2.48097" fill="#292957"/>
<ellipse cx="104.348" cy="70.2941" rx="2.38966" ry="2.48097" fill="#292957"/>
<ellipse cx="23.1001" cy="23.9827" rx="2.38966" ry="2.48097" fill="#292957"/>
<ellipse cx="43.8101" cy="23.9827" rx="2.38966" ry="2.48097" fill="#292957"/>
<ellipse cx="64.521" cy="25.6366" rx="2.38966" ry="2.48097" fill="#292957"/>
<ellipse cx="85.231" cy="25.6366" rx="2.38966" ry="2.48097" fill="#292957"/>
<ellipse cx="85.231" cy="2.48097" rx="2.38966" ry="2.48097" fill="#292957"/>
<ellipse cx="105.941" cy="25.6366" rx="2.38966" ry="2.48097" fill="#292957"/>
<ellipse cx="105.941" cy="2.48097" rx="2.38966" ry="2.48097" fill="#292957"/>
<ellipse cx="126.652" cy="25.6366" rx="2.38966" ry="2.48097" fill="#292957"/>
<ellipse cx="126.652" cy="2.48097" rx="2.38966" ry="2.48097" fill="#292957"/>
<ellipse cx="145.769" cy="2.48097" rx="2.38966" ry="2.48097" fill="#292957"/>
<ellipse cx="166.479" cy="2.48097" rx="2.38966" ry="2.48097" fill="#292957"/>
<ellipse cx="43.8101" cy="2.48097" rx="2.38966" ry="2.48097" fill="#292957"/>
<ellipse cx="1273.39" cy="223.39" rx="2.39" ry="2.48" fill="#292957"/>
<ellipse cx="1273.39" cy="180.346" rx="2.39" ry="2.48" fill="#292957"/>
<ellipse cx="1311.68" cy="180.346" rx="2.39" ry="2.48" fill="#292957"/>
<ellipse cx="1349.97" cy="223.39" rx="2.39" ry="2.48" fill="#292957"/>
<ellipse cx="1388.26" cy="223.39" rx="2.39" ry="2.48" fill="#292957"/>
<ellipse cx="1388.26" cy="180.346" rx="2.39" ry="2.48" fill="#292957"/>
<ellipse cx="1349.97" cy="143.45" rx="2.39" ry="2.48" fill="#292957"/>
<ellipse cx="1426.55" cy="143.45" rx="2.39" ry="2.48" fill="#292957"/>
<ellipse cx="1426.55" cy="260.286" rx="2.39" ry="2.48" fill="#292957"/>
<ellipse cx="1426.55" cy="300.256" rx="2.39" ry="2.48" fill="#292957"/>
<ellipse cx="1426.55" cy="103.48" rx="2.39" ry="2.48" fill="#292957"/>
<ellipse cx="1311.68" cy="143.45" rx="2.39" ry="2.48" fill="#292957"/>
<ellipse cx="1349.97" cy="260.286" rx="2.39" ry="2.48" fill="#292957"/>
<ellipse cx="1311.68" cy="260.286" rx="2.39" ry="2.48" fill="#292957"/>
<ellipse cx="400.504" cy="138.182" rx="2.39" ry="2.48" transform="rotate(-180 400.504 138.182)" fill="#292957"/>
<ellipse cx="384.17" cy="138.182" rx="2.39" ry="2.48" transform="rotate(-180 384.17 138.182)" fill="#292957"/>
<ellipse cx="367.836" cy="138.182" rx="2.39" ry="2.48" transform="rotate(-180 367.836 138.182)" fill="#292957"/>
<ellipse cx="367.836" cy="121.499" rx="2.39" ry="2.48" transform="rotate(-180 367.836 121.499)" fill="#292957"/>
<ellipse cx="349.687" cy="121.499" rx="2.39" ry="2.48" transform="rotate(-180 349.687 121.499)" fill="#292957"/>
<ellipse cx="333.353" cy="121.499" rx="2.39" ry="2.48" transform="rotate(-180 333.353 121.499)" fill="#292957"/>
<ellipse cx="315.203" cy="121.499" rx="2.39" ry="2.48" transform="rotate(-180 315.203 121.499)" fill="#292957"/>
<ellipse cx="315.203" cy="106.669" rx="2.39" ry="2.48" transform="rotate(-180 315.203 106.669)" fill="#292957"/>
<ellipse cx="298.869" cy="106.669" rx="2.39" ry="2.48" transform="rotate(-180 298.869 106.669)" fill="#292957"/>
<ellipse cx="298.869" cy="89.9855" rx="2.39" ry="2.48" transform="rotate(-180 298.869 89.9855)" fill="#292957"/>
<ellipse cx="315.203" cy="89.9855" rx="2.39" ry="2.48" transform="rotate(-180 315.203 89.9855)" fill="#292957"/>
<ellipse cx="315.203" cy="73.3019" rx="2.39" ry="2.48" transform="rotate(-180 315.203 73.3019)" fill="#292957"/>
<ellipse cx="331.537" cy="73.3019" rx="2.39" ry="2.48" transform="rotate(-180 331.537 73.3019)" fill="#292957"/>
<ellipse cx="331.537" cy="89.9855" rx="2.39" ry="2.48" transform="rotate(-180 331.537 89.9855)" fill="#292957"/>
<ellipse cx="298.869" cy="73.3019" rx="2.39" ry="2.48" transform="rotate(-180 298.869 73.3019)" fill="#292957"/>
<ellipse cx="298.869" cy="56.6184" rx="2.39" ry="2.48" transform="rotate(-180 298.869 56.6184)" fill="#292957"/>
<ellipse cx="298.869" cy="39.9349" rx="2.39" ry="2.48" transform="rotate(-180 298.869 39.9349)" fill="#292957"/>
<ellipse cx="331.537" cy="106.669" rx="2.39" ry="2.48" transform="rotate(-180 331.537 106.669)" fill="#292957"/>
<ellipse cx="349.687" cy="106.669" rx="2.39" ry="2.48" transform="rotate(-180 349.687 106.669)" fill="#292957"/>
<ellipse cx="367.836" cy="106.669" rx="2.39" ry="2.48" transform="rotate(-180 367.836 106.669)" fill="#292957"/>
<ellipse cx="349.687" cy="138.182" rx="2.39" ry="2.48" transform="rotate(-180 349.687 138.182)" fill="#292957"/>
<ellipse cx="333.353" cy="138.182" rx="2.39" ry="2.48" transform="rotate(-180 333.353 138.182)" fill="#292957"/>
<ellipse cx="833.601" cy="132.02" rx="2.39" ry="2.48" fill="#292957"/>
<ellipse cx="833.601" cy="148.703" rx="2.39" ry="2.48" fill="#292957"/>
<ellipse cx="833.601" cy="167.24" rx="2.39" ry="2.48" fill="#292957"/>
<ellipse cx="833.601" cy="183.924" rx="2.39" ry="2.48" fill="#292957"/>
<ellipse cx="868.084" cy="183.924" rx="2.39" ry="2.48" fill="#292957"/>
<ellipse cx="868.084" cy="167.24" rx="2.39" ry="2.48" fill="#292957"/>
<ellipse cx="799.118" cy="167.24" rx="2.39" ry="2.48" fill="#292957"/>
<ellipse cx="799.118" cy="183.924" rx="2.39" ry="2.48" fill="#292957"/>
<ellipse cx="833.601" cy="200.607" rx="2.39" ry="2.48" fill="#292957"/>
<ellipse cx="833.601" cy="217.291" rx="2.39" ry="2.48" fill="#292957"/>
<ellipse cx="851.75" cy="132.02" rx="2.39" ry="2.48" fill="#292957"/>
<ellipse cx="851.75" cy="148.703" rx="2.39" ry="2.48" fill="#292957"/>
<ellipse cx="851.75" cy="167.24" rx="2.39" ry="2.48" fill="#292957"/>
<ellipse cx="851.75" cy="183.924" rx="2.39" ry="2.48" fill="#292957"/>
<ellipse cx="886.233" cy="183.924" rx="2.39" ry="2.48" fill="#292957"/>
<ellipse cx="886.233" cy="167.24" rx="2.39" ry="2.48" fill="#292957"/>
<ellipse cx="817.267" cy="167.24" rx="2.39" ry="2.48" fill="#292957"/>
<ellipse cx="817.267" cy="183.924" rx="2.39" ry="2.48" fill="#292957"/>
<ellipse cx="851.75" cy="200.607" rx="2.39" ry="2.48" fill="#292957"/>
<ellipse cx="851.75" cy="217.291" rx="2.39" ry="2.48" fill="#292957"/>
<ellipse rx="2.39" ry="2.48" transform="matrix(0.697862 -0.716232 0.701305 0.712861 911.774 232.275)" fill="#292957"/>
<ellipse rx="2.39" ry="2.48" transform="matrix(0.697862 -0.716232 0.701305 0.712861 923.351 244.044)" fill="#292957"/>
<ellipse rx="2.39" ry="2.48" transform="matrix(0.697862 -0.716232 0.701305 0.712861 936.216 257.12)" fill="#292957"/>
<ellipse rx="2.39" ry="2.48" transform="matrix(0.697862 -0.716232 0.701305 0.712861 946.564 268.888)" fill="#292957"/>
<ellipse rx="2.39" ry="2.48" transform="matrix(0.697862 -0.716232 0.701305 0.712861 972.118 243.923)" fill="#292957"/>
<ellipse rx="2.39" ry="2.48" transform="matrix(0.697862 -0.716232 0.701305 0.712861 980.595 255.507)" fill="#292957"/>
<ellipse rx="2.39" ry="2.48" transform="matrix(0.697862 -0.716232 0.701305 0.712861 991.484 266.629)" fill="#292957"/>
<ellipse rx="2.39" ry="2.48" transform="matrix(0.697862 -0.716232 0.701305 0.712861 944.296 316.68)" fill="#292957"/>
<ellipse rx="2.39" ry="2.48" transform="matrix(0.697862 -0.716232 0.701305 0.712861 933.407 303.704)" fill="#292957"/>
<ellipse rx="2.39" ry="2.48" transform="matrix(0.697862 -0.716232 0.701305 0.712861 981.825 303.704)" fill="#292957"/>
<ellipse rx="2.39" ry="2.48" transform="matrix(0.697862 -0.716232 0.701305 0.712861 994.529 314.826)" fill="#292957"/>
<ellipse rx="2.39" ry="2.48" transform="matrix(0.697862 -0.716232 0.701305 0.712861 960.54 232.155)" fill="#292957"/>
<ellipse rx="2.39" ry="2.48" transform="matrix(0.697862 -0.716232 0.701305 0.712861 911.891 282.085)" fill="#292957"/>
<ellipse rx="2.39" ry="2.48" transform="matrix(0.697862 -0.716232 0.701305 0.712861 923.469 293.853)" fill="#292957"/>
<ellipse rx="2.39" ry="2.48" transform="matrix(0.697862 -0.716232 0.701305 0.712861 958.142 280.657)" fill="#292957"/>
<ellipse rx="2.39" ry="2.48" transform="matrix(0.697862 -0.716232 0.701305 0.712861 969.719 292.425)" fill="#292957"/>
<ellipse rx="2.39" ry="2.48" transform="matrix(0.697862 -0.716232 0.701305 0.712861 924.576 219.135)" fill="#292957"/>
<ellipse rx="2.39" ry="2.48" transform="matrix(0.697862 -0.716232 0.701305 0.712861 936.154 230.904)" fill="#292957"/>
<ellipse rx="2.39" ry="2.48" transform="matrix(0.697862 -0.716232 0.701305 0.712861 949.018 243.98)" fill="#292957"/>
<ellipse rx="2.39" ry="2.48" transform="matrix(0.697862 -0.716232 0.701305 0.712861 960.596 255.749)" fill="#292957"/>
<ellipse rx="2.39" ry="2.48" transform="matrix(0.697862 -0.716232 0.701305 0.712861 983.69 230.784)" fill="#292957"/>
<ellipse rx="2.39" ry="2.48" transform="matrix(0.697862 -0.716232 0.701305 0.712861 993.397 242.368)" fill="#292957"/>
<ellipse rx="2.39" ry="2.48" transform="matrix(0.697862 -0.716232 0.701305 0.712861 1004.29 253.49)" fill="#292957"/>
<ellipse rx="2.39" ry="2.48" transform="matrix(0.697862 -0.716232 0.701305 0.712861 957.099 303.54)" fill="#292957"/>
<ellipse rx="2.39" ry="2.48" transform="matrix(0.697862 -0.716232 0.701305 0.712861 946.209 290.564)" fill="#292957"/>
<ellipse rx="2.39" ry="2.48" transform="matrix(0.697862 -0.716232 0.701305 0.712861 994.627 290.564)" fill="#292957"/>
<ellipse rx="2.39" ry="2.48" transform="matrix(0.697862 -0.716232 0.701305 0.712861 1007.33 301.687)" fill="#292957"/>
<ellipse rx="2.39" ry="2.48" transform="matrix(0.697862 -0.716232 0.701305 0.712861 973.342 219.016)" fill="#292957"/>
<ellipse rx="2.39" ry="2.48" transform="matrix(0.697862 -0.716232 0.701305 0.712861 924.694 268.945)" fill="#292957"/>
<ellipse rx="2.39" ry="2.48" transform="matrix(0.697862 -0.716232 0.701305 0.712861 936.272 280.714)" fill="#292957"/>
<ellipse rx="2.39" ry="2.48" transform="matrix(0.697862 -0.716232 0.701305 0.712861 970.944 267.518)" fill="#292957"/>
<ellipse rx="2.39" ry="2.48" transform="matrix(0.697862 -0.716232 0.701305 0.712861 982.521 279.286)" fill="#292957"/>
<ellipse rx="2.41569" ry="2.45417" transform="matrix(0.98936 -0.00243553 0.00238453 1.01052 753.643 215.606)" fill="#292957"/>
<ellipse rx="2.41569" ry="2.45417" transform="matrix(0.98936 -0.00243553 0.00238453 1.01052 753.682 232.29)" fill="#292957"/>
<ellipse rx="2.41569" ry="2.45417" transform="matrix(0.98936 -0.00243553 0.00238453 1.01052 753.726 250.827)" fill="#292957"/>
<ellipse rx="2.41569" ry="2.45417" transform="matrix(0.98936 -0.00243553 0.00238453 1.01052 753.765 267.51)" fill="#292957"/>
<ellipse rx="2.41569" ry="2.45417" transform="matrix(0.98936 -0.00243553 0.00238453 1.01052 788.248 267.425)" fill="#292957"/>
<ellipse rx="2.41569" ry="2.45417" transform="matrix(0.98936 -0.00243553 0.00238453 1.01052 787.092 282.627)" fill="#292957"/>
<ellipse rx="2.41569" ry="2.45417" transform="matrix(0.98936 -0.00243553 0.00238453 1.01052 787.092 298.356)" fill="#292957"/>
<ellipse rx="2.41569" ry="2.45417" transform="matrix(0.98936 -0.00243553 0.00238453 1.01052 719.076 299.667)" fill="#292957"/>
<ellipse rx="2.41569" ry="2.45417" transform="matrix(0.98936 -0.00243553 0.00238453 1.01052 720.359 282.627)" fill="#292957"/>
<ellipse rx="2.41569" ry="2.45417" transform="matrix(0.98936 -0.00243553 0.00238453 1.01052 753.726 316.707)" fill="#292957"/>
<ellipse rx="2.41569" ry="2.45417" transform="matrix(0.98936 -0.00243553 0.00238453 1.01052 755.009 333.747)" fill="#292957"/>
<ellipse rx="2.41569" ry="2.45417" transform="matrix(0.98936 -0.00243553 0.00238453 1.01052 788.209 250.742)" fill="#292957"/>
<ellipse rx="2.41569" ry="2.45417" transform="matrix(0.98936 -0.00243553 0.00238453 1.01052 719.243 250.912)" fill="#292957"/>
<ellipse rx="2.41569" ry="2.45417" transform="matrix(0.98936 -0.00243553 0.00238453 1.01052 719.282 267.595)" fill="#292957"/>
<ellipse rx="2.41569" ry="2.45417" transform="matrix(0.98936 -0.00243553 0.00238453 1.01052 753.805 284.194)" fill="#292957"/>
<ellipse rx="2.41569" ry="2.45417" transform="matrix(0.98936 -0.00243553 0.00238453 1.01052 753.844 300.877)" fill="#292957"/>
<ellipse rx="2.41569" ry="2.45417" transform="matrix(0.98936 -0.00243553 0.00238453 1.01052 771.792 215.562)" fill="#292957"/>
<ellipse rx="2.41569" ry="2.45417" transform="matrix(0.98936 -0.00243553 0.00238453 1.01052 771.831 232.245)" fill="#292957"/>
<ellipse rx="2.41569" ry="2.45417" transform="matrix(0.98936 -0.00243553 0.00238453 1.01052 771.875 250.782)" fill="#292957"/>
<ellipse rx="2.41569" ry="2.45417" transform="matrix(0.98936 -0.00243553 0.00238453 1.01052 771.914 267.466)" fill="#292957"/>
<ellipse rx="2.41569" ry="2.45417" transform="matrix(0.98936 -0.00243553 0.00238453 1.01052 806.397 267.381)" fill="#292957"/>
<ellipse rx="2.41569" ry="2.45417" transform="matrix(0.98936 -0.00243553 0.00238453 1.01052 805.241 282.582)" fill="#292957"/>
<ellipse rx="2.41569" ry="2.45417" transform="matrix(0.98936 -0.00243553 0.00238453 1.01052 805.241 298.311)" fill="#292957"/>
<ellipse rx="2.41569" ry="2.45417" transform="matrix(0.98936 -0.00243553 0.00238453 1.01052 737.225 299.622)" fill="#292957"/>
<ellipse rx="2.41569" ry="2.45417" transform="matrix(0.98936 -0.00243553 0.00238453 1.01052 738.508 282.582)" fill="#292957"/>
<ellipse rx="2.41569" ry="2.45417" transform="matrix(0.98936 -0.00243553 0.00238453 1.01052 771.875 316.662)" fill="#292957"/>
<ellipse rx="2.41569" ry="2.45417" transform="matrix(0.98936 -0.00243553 0.00238453 1.01052 773.158 333.702)" fill="#292957"/>
<ellipse rx="2.41569" ry="2.45417" transform="matrix(0.98936 -0.00243553 0.00238453 1.01052 806.358 250.697)" fill="#292957"/>
<ellipse rx="2.41569" ry="2.45417" transform="matrix(0.98936 -0.00243553 0.00238453 1.01052 737.392 250.867)" fill="#292957"/>
<ellipse rx="2.41569" ry="2.45417" transform="matrix(0.98936 -0.00243553 0.00238453 1.01052 737.431 267.551)" fill="#292957"/>
<ellipse rx="2.41569" ry="2.45417" transform="matrix(0.98936 -0.00243553 0.00238453 1.01052 771.954 284.149)" fill="#292957"/>
<ellipse rx="2.41569" ry="2.45417" transform="matrix(0.98936 -0.00243553 0.00238453 1.01052 771.993 300.833)" fill="#292957"/>
<ellipse cx="942.495" cy="50.456" rx="2.39" ry="2.48" fill="#292957"/>
<ellipse cx="958.829" cy="50.456" rx="2.39" ry="2.48" fill="#292957"/>
<ellipse cx="975.164" cy="50.456" rx="2.39" ry="2.48" fill="#292957"/>
<ellipse cx="975.164" cy="67.1394" rx="2.39" ry="2.48" fill="#292957"/>
<ellipse cx="993.313" cy="67.1394" rx="2.39" ry="2.48" fill="#292957"/>
<ellipse cx="1009.65" cy="67.1394" rx="2.39" ry="2.48" fill="#292957"/>
<ellipse cx="1027.8" cy="67.1394" rx="2.39" ry="2.48" fill="#292957"/>
<ellipse cx="1027.8" cy="81.9693" rx="2.39" ry="2.48" fill="#292957"/>
<ellipse cx="1044.13" cy="81.9693" rx="2.39" ry="2.48" fill="#292957"/>
<ellipse cx="1044.13" cy="98.6529" rx="2.39" ry="2.48" fill="#292957"/>
<ellipse cx="1027.8" cy="98.6529" rx="2.39" ry="2.48" fill="#292957"/>
<ellipse cx="1027.8" cy="115.336" rx="2.39" ry="2.48" fill="#292957"/>
<ellipse cx="1011.46" cy="115.336" rx="2.39" ry="2.48" fill="#292957"/>
<ellipse cx="1011.46" cy="98.6529" rx="2.39" ry="2.48" fill="#292957"/>
<ellipse cx="1044.13" cy="115.336" rx="2.39" ry="2.48" fill="#292957"/>
<ellipse cx="1044.13" cy="132.02" rx="2.39" ry="2.48" fill="#292957"/>
<ellipse cx="1044.13" cy="148.703" rx="2.39" ry="2.48" fill="#292957"/>
<ellipse cx="1011.46" cy="81.9693" rx="2.39" ry="2.48" fill="#292957"/>
<ellipse cx="993.313" cy="81.9693" rx="2.39" ry="2.48" fill="#292957"/>
<ellipse cx="975.164" cy="81.9693" rx="2.39" ry="2.48" fill="#292957"/>
<ellipse cx="993.313" cy="50.456" rx="2.39" ry="2.48" fill="#292957"/>
<ellipse cx="1009.65" cy="50.456" rx="2.39" ry="2.48" fill="#292957"/>
</svg>
